<svg xmlns="http://www.w3.org/2000/svg" viewBox="-12 -12 218 226">
  <path
    d="M124.457 110.521C124.457 123.085 114.661 135.224 95.0688 135.224C83.3568 135.224 75.4768 129.261 75.4768 119.678C75.4768 110.734 82.9298 105.623 91.4488 105.623L124.457 105.623L124.457 110.521ZM100.343 0C48.7598 0-0.000160156 34.902-0.000160156 99.83C-0.000160156 160.396 45.1668 199.659 108.812 199.659L157.828 199.659L157.828 178.359L108.812 178.359C55.4328 178.359 22.3268 149.617 22.3268 99.83C22.3268 48.504 57.4858 21.3 100.343 21.3C137.555 21.3 170.918 44.654 170.918 86.229L170.918 119.86C170.918 127.045 166.41 132.635 156.819 132.635C156.39 132.635 157.235 132.672 156.819 132.635L156.819 132.669L146.817 132.669L146.817 83.688C146.817 63.032 131.697 41.949 100.393 41.949C76.3288 41.949 58.4408 56.005 55.2468 78.79L76.9678 78.79C78.4588 70.486 85.6988 62.18 100.18 62.18C117.003 62.18 124.457 73.04 124.457 83.688L124.457 86.244L91.4488 86.244C65.0428 86.244 52.0518 102.003 52.0518 119.891C52.0518 141.613 69.9408 155.454 91.4488 155.454C111.041 155.454 121.688 147.362 126.161 138.418L126.161 141.186C126.161 148.427 130.207 153.538 139.364 153.538L157.465 153.538L157.465 153.531C157.586 153.533 157.71 153.538 157.828 153.538C182.723 153.538 193.245 136.343 193.245 120.432L193.245 86.229C193.245 34.646 150.387 0 100.343 0"
    fill="#1E1E1E"
    fill-rule="nonzero"
  />
</svg>
