<?xml version="1.0" encoding="UTF-8" standalone="no"?>
<!DOCTYPE svg PUBLIC "-//W3C//DTD SVG 1.1//EN" "http://www.w3.org/Graphics/SVG/1.1/DTD/svg11.dtd">
<!-- Created with Vectornator (http://vectornator.io/) -->
<svg height="372.77pt" stroke-miterlimit="10" style="fill-rule:nonzero;clip-rule:evenodd;stroke-linecap:round;stroke-linejoin:round;" version="1.1" viewBox="0 0 996.61 372.77" width="996.6100000000006pt" xml:space="preserve" xmlns="http://www.w3.org/2000/svg" xmlns:xlink="http://www.w3.org/1999/xlink">
<defs/>
<clipPath id="ArtboardFrame">
<rect height="372.77" width="996.61" x="0" y="0"/>
</clipPath>
<g clip-path="url(#ArtboardFrame)" id="Untitled">
<clipPath clip-rule="nonzero" id="ClipPath">
<path d="M2.27374e-13 2.27374e-13L996.61 2.27374e-13L996.61 372.77L2.27374e-13 372.77L2.27374e-13 2.27374e-13Z"/>
</clipPath>
<g clip-path="url(#ClipPath)">
<g opacity="1">
<path d="M420.375 107.847L420.375 43.8836L443.828 43.8836L443.828 107.208C443.828 121.492 451.504 133.432 469.413 133.432C487.109 133.432 494.785 121.492 494.785 107.208L494.785 43.8836L518.238 43.8836L518.238 107.847C518.238 131.94 503.953 155.393 469.413 155.393C434.873 155.393 420.375 131.94 420.375 107.847" fill="#000000" fill-rule="nonzero" opacity="1" stroke="none"/>
<path d="M544.863 43.8839L568.316 43.8839L568.316 58.8089C573.22 50.2799 583.454 41.9649 600.724 41.9649C627.801 41.9649 642.086 61.7939 642.086 83.9669L642.086 153.687L618.633 153.687L618.633 91.0029C618.633 76.5049 610.745 64.3519 593.688 64.3519C577.058 64.3519 568.316 77.1449 568.316 91.0029L568.316 153.687L544.863 153.687L544.863 43.8839Z" fill="#000000" fill-rule="nonzero" opacity="1" stroke="none"/>
<path d="M401.603 309.02L401.603 238.874L381.134 238.874L381.134 218.406L402.029 218.406L402.029 190.263L425.056 190.263L425.056 218.406L456.824 218.406L456.824 238.874L425.056 238.874L425.056 306.888L455.119 306.888L455.119 328.209L421.857 328.209C407.359 328.209 401.603 320.107 401.603 309.02" fill="#000000" fill-rule="nonzero" opacity="1" stroke="none"/>
<path d="M555.321 273.2C555.321 252.519 540.61 238.447 521.207 238.447C501.805 238.447 487.094 252.519 487.094 273.2C487.094 294.094 501.805 307.953 521.207 307.953C540.61 307.953 555.321 294.094 555.321 273.2M463.428 273.2C463.428 240.579 487.52 216.486 521.207 216.486C554.895 216.486 578.987 240.579 578.987 273.2C578.987 306.034 554.895 330.127 521.207 330.127C487.52 330.127 463.428 306.034 463.428 273.2" fill="#000000" fill-rule="nonzero" opacity="1" stroke="none"/>
<path d="M678.808 273.413C678.808 251.452 664.523 238.234 646.614 238.234C628.704 238.234 614.632 251.452 614.632 273.413C614.632 295.161 628.704 308.38 646.614 308.38C664.523 308.38 678.808 295.161 678.808 273.413M590.966 273.413C590.966 240.579 612.713 216.486 644.907 216.486C658.767 216.486 670.066 220.964 678.808 229.066L678.808 218.405L702.261 218.405L702.261 372.769L678.808 372.769L678.808 317.334C670.066 325.436 658.767 330.127 644.907 330.127C612.713 330.127 590.966 306.034 590.966 273.413" fill="#000000" fill-rule="nonzero" opacity="1" stroke="none"/>
<path d="M727.924 282.368L727.924 218.405L751.378 218.405L751.378 281.729C751.378 296.013 759.053 307.953 776.962 307.953C794.659 307.953 802.335 296.013 802.335 281.729L802.335 218.405L825.788 218.405L825.788 282.368C825.788 306.461 811.503 329.914 776.962 329.914C742.423 329.914 727.924 306.461 727.924 282.368" fill="#000000" fill-rule="nonzero" opacity="1" stroke="none"/>
<path d="M931.001 262.113C927.163 244.63 913.944 237.381 900.085 237.381C883.668 237.381 871.942 246.976 868.104 262.113L931.001 262.113ZM843.799 273.2C843.799 240.579 866.612 216.486 899.872 216.486C929.081 216.486 955.093 236.102 955.093 273.2L955.093 281.728L867.678 281.728C870.663 298.145 882.815 308.806 900.299 308.806C912.026 308.806 921.833 303.262 926.524 294.308L952.321 294.308C945.286 316.908 925.458 330.127 900.085 330.127C866.399 330.127 843.799 306.034 843.799 273.2" fill="#000000" fill-rule="nonzero" opacity="1" stroke="none"/>
<path d="M401.735 153.686L208.696 153.686L208.696 139.282L401.735 139.282L401.735 153.686Z" fill="#000000" fill-rule="nonzero" opacity="1" stroke="none"/>
<path d="M996.61 315.788C996.61 307.869 990.19 301.449 982.271 301.449C974.351 301.449 967.931 307.869 967.931 315.788C967.931 323.707 974.351 330.127 982.271 330.127C990.19 330.127 996.61 323.707 996.61 315.788" fill="#000000" fill-rule="nonzero" opacity="1" stroke="none"/>
<path d="M124.457 110.522C124.457 123.086 114.661 135.225 95.0688 135.225C83.3568 135.225 75.4768 129.262 75.4768 119.679C75.4768 110.735 82.9298 105.624 91.4488 105.624L124.457 105.624L124.457 110.522ZM100.343 0.000638184C48.7598 0.000638184-0.000160156 34.9026-0.000160156 99.8306C-0.000160156 160.397 45.1668 199.66 108.812 199.66L157.828 199.66L157.828 178.36L108.812 178.36C55.4328 178.36 22.3268 149.618 22.3268 99.8306C22.3268 48.5046 57.4858 21.3006 100.343 21.3006C137.555 21.3006 170.918 44.6546 170.918 86.2296L170.918 119.861C170.918 127.046 166.41 132.636 156.819 132.636C156.39 132.636 157.235 132.673 156.819 132.636L156.819 132.67L146.817 132.67L146.817 83.6886C146.817 63.0326 131.697 41.9496 100.393 41.9496C76.3288 41.9496 58.4408 56.0056 55.2468 78.7906L76.9678 78.7906C78.4588 70.4866 85.6988 62.1806 100.18 62.1806C117.003 62.1806 124.457 73.0406 124.457 83.6886L124.457 86.2446L91.4488 86.2446C65.0428 86.2446 52.0518 102.004 52.0518 119.892C52.0518 141.614 69.9408 155.455 91.4488 155.455C111.041 155.455 121.688 147.363 126.161 138.419L126.161 141.187C126.161 148.428 130.207 153.539 139.364 153.539L157.465 153.539L157.465 153.532C157.586 153.534 157.71 153.539 157.828 153.539C182.723 153.539 193.245 136.344 193.245 120.433L193.245 86.2296C193.245 34.6466 150.387 0.000638184 100.343 0.000638184" fill="#000000" fill-rule="nonzero" opacity="1" stroke="none"/>
</g>
</g>
</g>
</svg>
