<?xml version="1.0" encoding="UTF-8" standalone="no"?>
<!DOCTYPE svg PUBLIC "-//W3C//DTD SVG 1.1//EN" "http://www.w3.org/Graphics/SVG/1.1/DTD/svg11.dtd">
<!-- Created with Vectornator (http://vectornator.io/) -->
<svg height="100%" stroke-miterlimit="10" style="fill-rule:nonzero;clip-rule:evenodd;stroke-linecap:round;stroke-linejoin:round;" version="1.1" viewBox="-960 -540 996.61 372.77" width="100%" xml:space="preserve" xmlns="http://www.w3.org/2000/svg" xmlns:vectornator="http://vectornator.io" xmlns:xlink="http://www.w3.org/1999/xlink">
<defs/>
<g id="Layer">
<g opacity="1">
<clipPath clip-rule="nonzero" id="ClipPath">
<path d="M-960-540L36.61-540L36.61-167.23L-960-167.23L-960-540Z"/>
</clipPath>
<g clip-path="url(#ClipPath)">
<g opacity="1">
<path d="M-539.625-432.154L-539.625-496.117L-516.172-496.117L-516.172-432.793C-516.172-418.509-508.496-406.569-490.587-406.569C-472.891-406.569-465.215-418.509-465.215-432.793L-465.215-496.117L-441.762-496.117L-441.762-432.154C-441.762-408.061-456.047-384.608-490.587-384.608C-525.127-384.608-539.625-408.061-539.625-432.154" fill="#000000" fill-rule="nonzero" opacity="1" stroke="none"/>
<path d="M-415.137-496.117L-391.684-496.117L-391.684-481.192C-386.78-489.721-376.546-498.036-359.276-498.036C-332.199-498.036-317.914-478.207-317.914-456.034L-317.914-386.314L-341.367-386.314L-341.367-448.998C-341.367-463.496-349.255-475.649-366.312-475.649C-382.942-475.649-391.684-462.856-391.684-448.998L-391.684-386.314L-415.137-386.314L-415.137-496.117Z" fill="#000000" fill-rule="nonzero" opacity="1" stroke="none"/>
<path d="M-558.397-230.981L-558.397-301.127L-578.866-301.127L-578.866-321.595L-557.971-321.595L-557.971-349.738L-534.944-349.738L-534.944-321.595L-503.176-321.595L-503.176-301.127L-534.944-301.127L-534.944-233.113L-504.881-233.113L-504.881-211.792L-538.143-211.792C-552.641-211.792-558.397-219.894-558.397-230.981" fill="#000000" fill-rule="nonzero" opacity="1" stroke="none"/>
<path d="M-404.679-266.8C-404.679-287.481-419.39-301.553-438.793-301.553C-458.195-301.553-472.906-287.481-472.906-266.8C-472.906-245.906-458.195-232.047-438.793-232.047C-419.39-232.047-404.679-245.906-404.679-266.8M-496.572-266.8C-496.572-299.421-472.48-323.514-438.793-323.514C-405.105-323.514-381.013-299.421-381.013-266.8C-381.013-233.966-405.105-209.873-438.793-209.873C-472.48-209.873-496.572-233.966-496.572-266.8" fill="#000000" fill-rule="nonzero" opacity="1" stroke="none"/>
<path d="M-281.192-266.587C-281.192-288.548-295.477-301.766-313.386-301.766C-331.296-301.766-345.368-288.548-345.368-266.587C-345.368-244.839-331.296-231.62-313.386-231.62C-295.477-231.62-281.192-244.839-281.192-266.587M-369.034-266.587C-369.034-299.421-347.287-323.514-315.093-323.514C-301.233-323.514-289.934-319.036-281.192-310.934L-281.192-321.595L-257.739-321.595L-257.739-167.231L-281.192-167.231L-281.192-222.666C-289.934-214.564-301.233-209.873-315.093-209.873C-347.287-209.873-369.034-233.966-369.034-266.587" fill="#000000" fill-rule="nonzero" opacity="1" stroke="none"/>
<path d="M-232.076-257.632L-232.076-321.595L-208.622-321.595L-208.622-258.271C-208.622-243.987-200.947-232.047-183.038-232.047C-165.341-232.047-157.665-243.987-157.665-258.271L-157.665-321.595L-134.212-321.595L-134.212-257.632C-134.212-233.539-148.497-210.086-183.038-210.086C-217.577-210.086-232.076-233.539-232.076-257.632" fill="#000000" fill-rule="nonzero" opacity="1" stroke="none"/>
<path d="M-28.999-277.887C-32.837-295.37-46.056-302.619-59.915-302.619C-76.332-302.619-88.058-293.024-91.896-277.887L-28.999-277.887ZM-116.201-266.8C-116.201-299.421-93.388-323.514-60.128-323.514C-30.919-323.514-4.90697-303.898-4.90697-266.8L-4.90697-258.272L-92.322-258.272C-89.337-241.855-77.185-231.194-59.701-231.194C-47.974-231.194-38.167-236.738-33.476-245.692L-7.67897-245.692C-14.714-223.092-34.542-209.873-59.915-209.873C-93.601-209.873-116.201-233.966-116.201-266.8" fill="#000000" fill-rule="nonzero" opacity="1" stroke="none"/>
<path d="M-558.265-386.315L-751.304-386.315L-751.304-400.719L-558.265-400.719L-558.265-386.315Z" fill="#000000" fill-rule="nonzero" opacity="1" stroke="none"/>
<path d="M36.6102-224.213C36.6102-232.132 30.1902-238.552 22.2712-238.552C14.3512-238.552 7.93116-232.132 7.93116-224.213C7.93116-216.294 14.3512-209.874 22.2712-209.874C30.1902-209.874 36.6102-216.294 36.6102-224.213" fill="#000000" fill-rule="nonzero" opacity="1" stroke="none"/>
<path d="M-835.543-429.479C-835.543-416.915-845.339-404.776-864.931-404.776C-876.643-404.776-884.523-410.739-884.523-420.322C-884.523-429.266-877.07-434.377-868.551-434.377L-835.543-434.377L-835.543-429.479ZM-859.657-540C-911.24-540-960-505.098-960-440.17C-960-379.604-914.833-340.341-851.188-340.341L-802.172-340.341L-802.172-361.641L-851.188-361.641C-904.567-361.641-937.673-390.383-937.673-440.17C-937.673-491.496-902.514-518.7-859.657-518.7C-822.445-518.7-789.082-495.346-789.082-453.771L-789.082-420.14C-789.082-412.955-793.59-407.365-803.181-407.365C-803.61-407.365-802.765-407.328-803.181-407.365L-803.181-407.331L-813.183-407.331L-813.183-456.312C-813.183-476.968-828.303-498.051-859.607-498.051C-883.671-498.051-901.559-483.995-904.753-461.21L-883.032-461.21C-881.541-469.514-874.301-477.82-859.82-477.82C-842.997-477.82-835.543-466.96-835.543-456.312L-835.543-453.756L-868.551-453.756C-894.957-453.756-907.948-437.997-907.948-420.109C-907.948-398.387-890.059-384.546-868.551-384.546C-848.959-384.546-838.312-392.638-833.839-401.582L-833.839-398.814C-833.839-391.573-829.793-386.462-820.636-386.462L-802.535-386.462L-802.535-386.469C-802.414-386.467-802.29-386.462-802.172-386.462C-777.277-386.462-766.755-403.657-766.755-419.568L-766.755-453.771C-766.755-505.354-809.613-540-859.657-540" fill="#000000" fill-rule="nonzero" opacity="1" stroke="none"/>
</g>
</g>
</g>
</g>
</svg>
