<?xml version="1.0" encoding="UTF-8" standalone="no"?>
<!DOCTYPE svg PUBLIC "-//W3C//DTD SVG 1.1//EN" "http://www.w3.org/Graphics/SVG/1.1/DTD/svg11.dtd">
<!-- Created with Vectornator (http://vectornator.io/) -->
<svg height="372.77pt" stroke-miterlimit="10" style="fill-rule:nonzero;clip-rule:evenodd;stroke-linecap:round;stroke-linejoin:round;" version="1.1" viewBox="0 0 996.61 372.77" width="996.6100000000006pt" xml:space="preserve" xmlns="http://www.w3.org/2000/svg" xmlns:xlink="http://www.w3.org/1999/xlink">
<defs/>
<g id="Untitled">
<g opacity="1">
<g opacity="1">
<clipPath clip-rule="nonzero" id="ClipPath">
<path d="M0 0L996.61 0L996.61 372.77L0 372.77L0 0Z"/>
</clipPath>
<g clip-path="url(#ClipPath)">
<g opacity="1">
<path d="M420.375 107.846L420.375 43.883L443.828 43.883L443.828 107.207C443.828 121.491 451.504 133.431 469.413 133.431C487.109 133.431 494.785 121.491 494.785 107.207L494.785 43.883L518.238 43.883L518.238 107.846C518.238 131.939 503.953 155.392 469.413 155.392C434.873 155.392 420.375 131.939 420.375 107.846" fill="#ffffff" fill-rule="nonzero" opacity="1" stroke="none"/>
<path d="M544.863 43.8832L568.316 43.8832L568.316 58.8082C573.22 50.2792 583.454 41.9642 600.724 41.9642C627.801 41.9642 642.086 61.7932 642.086 83.9662L642.086 153.686L618.633 153.686L618.633 91.0022C618.633 76.5042 610.745 64.3512 593.688 64.3512C577.058 64.3512 568.316 77.1442 568.316 91.0022L568.316 153.686L544.863 153.686L544.863 43.8832Z" fill="#ffffff" fill-rule="nonzero" opacity="1" stroke="none"/>
<path d="M401.603 309.019L401.603 238.873L381.134 238.873L381.134 218.405L402.029 218.405L402.029 190.262L425.056 190.262L425.056 218.405L456.824 218.405L456.824 238.873L425.056 238.873L425.056 306.887L455.119 306.887L455.119 328.208L421.857 328.208C407.359 328.208 401.603 320.106 401.603 309.019" fill="#ffffff" fill-rule="nonzero" opacity="1" stroke="none"/>
<path d="M555.321 273.2C555.321 252.519 540.61 238.447 521.207 238.447C501.805 238.447 487.094 252.519 487.094 273.2C487.094 294.094 501.805 307.953 521.207 307.953C540.61 307.953 555.321 294.094 555.321 273.2M463.428 273.2C463.428 240.579 487.52 216.486 521.207 216.486C554.895 216.486 578.987 240.579 578.987 273.2C578.987 306.034 554.895 330.127 521.207 330.127C487.52 330.127 463.428 306.034 463.428 273.2" fill="#ffffff" fill-rule="nonzero" opacity="1" stroke="none"/>
<path d="M678.808 273.413C678.808 251.452 664.523 238.234 646.614 238.234C628.704 238.234 614.632 251.452 614.632 273.413C614.632 295.161 628.704 308.38 646.614 308.38C664.523 308.38 678.808 295.161 678.808 273.413M590.966 273.413C590.966 240.579 612.713 216.486 644.907 216.486C658.767 216.486 670.066 220.964 678.808 229.066L678.808 218.405L702.261 218.405L702.261 372.769L678.808 372.769L678.808 317.334C670.066 325.436 658.767 330.127 644.907 330.127C612.713 330.127 590.966 306.034 590.966 273.413" fill="#ffffff" fill-rule="nonzero" opacity="1" stroke="none"/>
<path d="M727.924 282.368L727.924 218.405L751.378 218.405L751.378 281.729C751.378 296.013 759.053 307.953 776.962 307.953C794.659 307.953 802.335 296.013 802.335 281.729L802.335 218.405L825.788 218.405L825.788 282.368C825.788 306.461 811.503 329.914 776.962 329.914C742.423 329.914 727.924 306.461 727.924 282.368" fill="#ffffff" fill-rule="nonzero" opacity="1" stroke="none"/>
<path d="M931.001 262.113C927.163 244.63 913.944 237.381 900.085 237.381C883.668 237.381 871.942 246.976 868.104 262.113L931.001 262.113ZM843.799 273.2C843.799 240.579 866.612 216.486 899.872 216.486C929.081 216.486 955.093 236.102 955.093 273.2L955.093 281.728L867.678 281.728C870.663 298.145 882.815 308.806 900.299 308.806C912.026 308.806 921.833 303.262 926.524 294.308L952.321 294.308C945.286 316.908 925.458 330.127 900.085 330.127C866.399 330.127 843.799 306.034 843.799 273.2" fill="#ffffff" fill-rule="nonzero" opacity="1" stroke="none"/>
<path d="M401.735 153.685L208.696 153.685L208.696 139.281L401.735 139.281L401.735 153.685Z" fill="#ffffff" fill-rule="nonzero" opacity="1" stroke="none"/>
<path d="M996.61 315.787C996.61 307.868 990.19 301.448 982.271 301.448C974.351 301.448 967.931 307.868 967.931 315.787C967.931 323.706 974.351 330.126 982.271 330.126C990.19 330.126 996.61 323.706 996.61 315.787" fill="#ffffff" fill-rule="nonzero" opacity="1" stroke="none"/>
<path d="M124.457 110.521C124.457 123.085 114.661 135.224 95.0688 135.224C83.3568 135.224 75.4768 129.261 75.4768 119.678C75.4768 110.734 82.9298 105.623 91.4488 105.623L124.457 105.623L124.457 110.521ZM100.343 0C48.7598 0-0.000160156 34.902-0.000160156 99.83C-0.000160156 160.396 45.1668 199.659 108.812 199.659L157.828 199.659L157.828 178.359L108.812 178.359C55.4328 178.359 22.3268 149.617 22.3268 99.83C22.3268 48.504 57.4858 21.3 100.343 21.3C137.555 21.3 170.918 44.654 170.918 86.229L170.918 119.86C170.918 127.045 166.41 132.635 156.819 132.635C156.39 132.635 157.235 132.672 156.819 132.635L156.819 132.669L146.817 132.669L146.817 83.688C146.817 63.032 131.697 41.949 100.393 41.949C76.3288 41.949 58.4408 56.005 55.2468 78.79L76.9678 78.79C78.4588 70.486 85.6988 62.18 100.18 62.18C117.003 62.18 124.457 73.04 124.457 83.688L124.457 86.244L91.4488 86.244C65.0428 86.244 52.0518 102.003 52.0518 119.891C52.0518 141.613 69.9408 155.454 91.4488 155.454C111.041 155.454 121.688 147.362 126.161 138.418L126.161 141.186C126.161 148.427 130.207 153.538 139.364 153.538L157.465 153.538L157.465 153.531C157.586 153.533 157.71 153.538 157.828 153.538C182.723 153.538 193.245 136.343 193.245 120.432L193.245 86.229C193.245 34.646 150.387 0 100.343 0" fill="#ffffff" fill-rule="nonzero" opacity="1" stroke="none"/>
</g>
</g>
</g>
</g>
</g>
</svg>
